# Blender v2.92.0 OBJ File: 'smartphone.blend'
# www.blender.org
mtllib skybox.mtl
o skybox_Cube.002
v -1.000000 -1.000000 -1.000000
v -1.000000 1.000000 -1.000000
v 1.000000 -1.000000 -1.000000
v 1.000000 1.000000 -1.000000
v -1.000000 -1.000000 0.500000
v -1.000000 1.000000 0.500000
v 1.000000 -1.000000 0.500000
v 1.000000 1.000000 0.500000
vt 0.375000 0.062500
vt 0.375000 0.250000
vt 0.625000 0.250000
vt 0.625000 0.062500
vt 0.375000 0.500000
vt 0.625000 0.500000
vt 0.625000 0.687500
vt 0.875000 0.687500
vt 0.875000 0.500000
vt 0.125000 0.500000
vt 0.125000 0.687500
vt 0.375000 0.687500
vn 1.0000 0.0000 0.0000
vn 0.0000 0.0000 1.0000
vn 0.0000 -1.0000 0.0000
vn 0.0000 1.0000 0.0000
vn -1.0000 0.0000 0.0000
usemtl None
s off
f 5/1/1 1/2/1 2/3/1 6/4/1
f 1/2/2 3/5/2 4/6/2 2/3/2
f 4/6/3 8/7/3 6/8/3 2/9/3
f 1/10/4 5/11/4 7/12/4 3/5/4
f 3/5/5 7/12/5 8/7/5 4/6/5
