{
    "asset" : {
        "generator" : "Khronos glTF Blender I/O v1.4.40",
        "version" : "2.0"
    },
    "scene" : 0,
    "scenes" : [
        {
            "name" : "Scene",
            "nodes" : [
                0
            ]
        }
    ],
    "nodes" : [
        {
            "mesh" : 0,
            "name" : "smartphone"
        }
    ],
    "materials" : [
        {
            "doubleSided" : true,
            "name" : "phone_mat",
            "pbrMetallicRoughness" : {
                "baseColorTexture" : {
                    "index" : 0,
                    "texCoord" : 0
                },
                "metallicFactor" : 0,
                "roughnessFactor" : 0.5298507213592529
            }
        }
    ],
    "meshes" : [
        {
            "name" : "Cube.001",
            "primitives" : [
                {
                    "attributes" : {
                        "POSITION" : 0,
                        "NORMAL" : 1,
                        "TEXCOORD_0" : 2
                    },
                    "indices" : 3,
                    "material" : 0
                }
            ]
        }
    ],
    "textures" : [
        {
            "sampler" : 0,
            "source" : 0
        }
    ],
    "images" : [
        {
            "bufferView" : 4,
            "mimeType" : "image/png",
            "name" : "gradients_tex"
        }
    ],
    "accessors" : [
        {
            "bufferView" : 0,
            "componentType" : 5126,
            "count" : 653,
            "max" : [
                0.04600196331739426,
                0.08771181851625443,
                0.013913575559854507
            ],
            "min" : [
                -0.04600196331739426,
                -0.0877118781208992,
                -0.014185609295964241
            ],
            "type" : "VEC3"
        },
        {
            "bufferView" : 1,
            "componentType" : 5126,
            "count" : 653,
            "type" : "VEC3"
        },
        {
            "bufferView" : 2,
            "componentType" : 5126,
            "count" : 653,
            "type" : "VEC2"
        },
        {
            "bufferView" : 3,
            "componentType" : 5123,
            "count" : 2436,
            "type" : "SCALAR"
        }
    ],
    "bufferViews" : [
        {
            "buffer" : 0,
            "byteLength" : 7836,
            "byteOffset" : 0
        },
        {
            "buffer" : 0,
            "byteLength" : 7836,
            "byteOffset" : 7836
        },
        {
            "buffer" : 0,
            "byteLength" : 5224,
            "byteOffset" : 15672
        },
        {
            "buffer" : 0,
            "byteLength" : 4872,
            "byteOffset" : 20896
        },
        {
            "buffer" : 0,
            "byteLength" : 27536,
            "byteOffset" : 25768
        }
    ],
    "samplers" : [
        {
            "magFilter" : 9729,
            "minFilter" : 9986
        }
    ],
    "buffers" : [
        {
            "byteLength" : 53304,
            "uri" : "data:application/octet-stream;base64,"
        }
    ]
}
