{
    "asset" : {
        "generator" : "Khronos glTF Blender I/O v1.5.17",
        "version" : "2.0"
    },
    "scene" : 0,
    "scenes" : [
        {
            "name" : "Scene",
            "nodes" : [
                2
            ]
        }
    ],
    "nodes" : [
        {
            "mesh" : 0,
            "name" : "steering_wheel_chebran",
            "rotation" : [
                -0.7071068286895752,
                0,
                0,
                0.7071068286895752
            ]
        },
        {
            "mesh" : 1,
            "name" : "steering_wheel_logo",
            "rotation" : [
                -0.0871557891368866,
                0,
                0,
                0.9961947202682495
            ],
            "translation" : [
                0,
                0.05554906278848648,
                -0.0009630719432607293
            ]
        },
        {
            "children" : [
                0,
                1
            ],
            "mesh" : 2,
            "name" : "steering_wheel_base",
            "rotation" : [
                0.7071068286895752,
                0,
                0,
                0.7071068286895752
            ]
        }
    ],
    "materials" : [
        {
            "doubleSided" : true,
            "name" : "uv_gradient_mat",
            "pbrMetallicRoughness" : {
                "baseColorTexture" : {
                    "index" : 0
                },
                "metallicFactor" : 0,
                "roughnessFactor" : 0.5
            }
        }
    ],
    "meshes" : [
        {
            "name" : "Plane.001",
            "primitives" : [
                {
                    "attributes" : {
                        "POSITION" : 0,
                        "NORMAL" : 1,
                        "TEXCOORD_0" : 2
                    },
                    "indices" : 3,
                    "material" : 0
                }
            ]
        },
        {
            "name" : "Circle",
            "primitives" : [
                {
                    "attributes" : {
                        "POSITION" : 4,
                        "NORMAL" : 5,
                        "TEXCOORD_0" : 6
                    },
                    "indices" : 7,
                    "material" : 0
                }
            ]
        },
        {
            "name" : "BezierCircle.001",
            "primitives" : [
                {
                    "attributes" : {
                        "POSITION" : 8,
                        "NORMAL" : 9,
                        "TEXCOORD_0" : 10
                    },
                    "indices" : 11,
                    "material" : 0
                }
            ]
        }
    ],
    "textures" : [
        {
            "sampler" : 0,
            "source" : 0
        }
    ],
    "images" : [
        {
            "bufferView" : 4,
            "mimeType" : "image/png",
            "name" : "gradients_tex"
        }
    ],
    "accessors" : [
        {
            "bufferView" : 0,
            "componentType" : 5126,
            "count" : 244,
            "max" : [
                0.2961237132549286,
                0.12085419148206711,
                0.08288925886154175
            ],
            "min" : [
                -0.2961237132549286,
                -0.2853117287158966,
                -0.08288923650979996
            ],
            "type" : "VEC3"
        },
        {
            "bufferView" : 1,
            "componentType" : 5126,
            "count" : 244,
            "type" : "VEC3"
        },
        {
            "bufferView" : 2,
            "componentType" : 5126,
            "count" : 244,
            "type" : "VEC2"
        },
        {
            "bufferView" : 3,
            "componentType" : 5123,
            "count" : 960,
            "type" : "SCALAR"
        },
        {
            "bufferView" : 5,
            "componentType" : 5126,
            "count" : 152,
            "max" : [
                0.039515603333711624,
                0.0429171621799469,
                0.04527280479669571
            ],
            "min" : [
                -0.039515603333711624,
                -0.010065536014735699,
                -0.03948017954826355
            ],
            "type" : "VEC3"
        },
        {
            "bufferView" : 6,
            "componentType" : 5126,
            "count" : 152,
            "type" : "VEC3"
        },
        {
            "bufferView" : 7,
            "componentType" : 5126,
            "count" : 152,
            "type" : "VEC2"
        },
        {
            "bufferView" : 8,
            "componentType" : 5123,
            "count" : 432,
            "type" : "SCALAR"
        },
        {
            "bufferView" : 9,
            "componentType" : 5126,
            "count" : 390,
            "max" : [
                0.33000001311302185,
                0.030000004917383194,
                0.33000001311302185
            ],
            "min" : [
                -0.33000001311302185,
                -0.030000004917383194,
                -0.33000001311302185
            ],
            "type" : "VEC3"
        },
        {
            "bufferView" : 10,
            "componentType" : 5126,
            "count" : 390,
            "type" : "VEC3"
        },
        {
            "bufferView" : 11,
            "componentType" : 5126,
            "count" : 390,
            "type" : "VEC2"
        },
        {
            "bufferView" : 12,
            "componentType" : 5123,
            "count" : 1728,
            "type" : "SCALAR"
        }
    ],
    "bufferViews" : [
        {
            "buffer" : 0,
            "byteLength" : 2928,
            "byteOffset" : 0
        },
        {
            "buffer" : 0,
            "byteLength" : 2928,
            "byteOffset" : 2928
        },
        {
            "buffer" : 0,
            "byteLength" : 1952,
            "byteOffset" : 5856
        },
        {
            "buffer" : 0,
            "byteLength" : 1920,
            "byteOffset" : 7808
        },
        {
            "buffer" : 0,
            "byteLength" : 27536,
            "byteOffset" : 9728
        },
        {
            "buffer" : 0,
            "byteLength" : 1824,
            "byteOffset" : 37264
        },
        {
            "buffer" : 0,
            "byteLength" : 1824,
            "byteOffset" : 39088
        },
        {
            "buffer" : 0,
            "byteLength" : 1216,
            "byteOffset" : 40912
        },
        {
            "buffer" : 0,
            "byteLength" : 864,
            "byteOffset" : 42128
        },
        {
            "buffer" : 0,
            "byteLength" : 4680,
            "byteOffset" : 42992
        },
        {
            "buffer" : 0,
            "byteLength" : 4680,
            "byteOffset" : 47672
        },
        {
            "buffer" : 0,
            "byteLength" : 3120,
            "byteOffset" : 52352
        },
        {
            "buffer" : 0,
            "byteLength" : 3456,
            "byteOffset" : 55472
        }
    ],
    "samplers" : [
        {
            "magFilter" : 9729,
            "minFilter" : 9987
        }
    ],
    "buffers" : [
        {
            "byteLength" : 58928,
            "uri" : "data:application/octet-stream;base64,"
        }
    ]
}
