{
    "asset" : {
        "generator" : "Khronos glTF Blender I/O v1.5.17",
        "version" : "2.0"
    },
    "scene" : 0,
    "scenes" : [
        {
            "name" : "Scene",
            "nodes" : [
                0
            ]
        }
    ],
    "nodes" : [
        {
            "mesh" : 0,
            "name" : "tin"
        }
    ],
    "materials" : [
        {
            "doubleSided" : true,
            "name" : "uv_gradient_mat",
            "pbrMetallicRoughness" : {
                "baseColorTexture" : {
                    "index" : 0
                },
                "metallicFactor" : 0,
                "roughnessFactor" : 0.5
            }
        }
    ],
    "meshes" : [
        {
            "name" : "Plane.002",
            "primitives" : [
                {
                    "attributes" : {
                        "POSITION" : 0,
                        "NORMAL" : 1,
                        "TEXCOORD_0" : 2
                    },
                    "indices" : 3,
                    "material" : 0
                }
            ]
        }
    ],
    "textures" : [
        {
            "sampler" : 0,
            "source" : 0
        }
    ],
    "images" : [
        {
            "bufferView" : 4,
            "mimeType" : "image/png",
            "name" : "gradients_tex"
        }
    ],
    "accessors" : [
        {
            "bufferView" : 0,
            "componentType" : 5126,
            "count" : 1346,
            "max" : [
                0.2665451765060425,
                0.09943392127752304,
                0.2665451765060425
            ],
            "min" : [
                -0.2665451765060425,
                0,
                -0.2665451765060425
            ],
            "type" : "VEC3"
        },
        {
            "bufferView" : 1,
            "componentType" : 5126,
            "count" : 1346,
            "type" : "VEC3"
        },
        {
            "bufferView" : 2,
            "componentType" : 5126,
            "count" : 1346,
            "type" : "VEC2"
        },
        {
            "bufferView" : 3,
            "componentType" : 5123,
            "count" : 2016,
            "type" : "SCALAR"
        }
    ],
    "bufferViews" : [
        {
            "buffer" : 0,
            "byteLength" : 16152,
            "byteOffset" : 0
        },
        {
            "buffer" : 0,
            "byteLength" : 16152,
            "byteOffset" : 16152
        },
        {
            "buffer" : 0,
            "byteLength" : 10768,
            "byteOffset" : 32304
        },
        {
            "buffer" : 0,
            "byteLength" : 4032,
            "byteOffset" : 43072
        },
        {
            "buffer" : 0,
            "byteLength" : 27536,
            "byteOffset" : 47104
        }
    ],
    "samplers" : [
        {
            "magFilter" : 9729,
            "minFilter" : 9987
        }
    ],
    "buffers" : [
        {
            "byteLength" : 74640,
            "uri" : "data:application/octet-stream;base64,"
        }
    ]
}
